<?xml version="1.0" encoding="UTF-8" standalone="no"?>
<svg width="32px" height="32px" viewBox="0 0 32 32" version="1.1" xmlns="http://www.w3.org/2000/svg" xmlns:xlink="http://www.w3.org/1999/xlink">
    <!-- Generator: Sketch 3.7.2 (28276) - http://www.bohemiancoding.com/sketch -->
    <title>Shape</title>
    <desc>Created with Sketch.</desc>
    <defs></defs>
    <g id="Page-1" stroke="none" stroke-width="1" fill="none" fill-rule="evenodd">
        <path d="M16,0 C7.163,0 0,7.163 0,16 C0,24.836 7.163,32 16,32 C24.836,32 32,24.836 32,16 C32,7.163 24.836,0 16,0 L16,0 Z M16,28 C9.383,28 4,22.617 4,16 C4,9.383 9.383,4 16,4 C22.617,4 28,9.383 28,16 C28,22.617 22.617,28 16,28 L16,28 Z M9,23 L18.3333333,18.3333333 L23,9 L13.6666667,13.6666667 L9,23 L9,23 Z" id="Shape" fill="#0D325D"></path>
    </g>
</svg>