<?xml version="1.0" encoding="UTF-8" standalone="no"?>
<svg width="32px" height="32px" viewBox="0 0 32 32" version="1.1" xmlns="http://www.w3.org/2000/svg" xmlns:xlink="http://www.w3.org/1999/xlink">
    <!-- Generator: Sketch 3.7.2 (28276) - http://www.bohemiancoding.com/sketch -->
    <title>Shape</title>
    <desc>Created with Sketch.</desc>
    <defs></defs>
    <g id="Page-1" stroke="none" stroke-width="1" fill="none" fill-rule="evenodd">
        <path d="M31.708,25.708 L31.708,25.708 L22,16 L31.708,6.292 L31.708,6.292 C31.813,6.187 31.888,6.065 31.937,5.935 C32.07,5.579 31.994,5.164 31.708,4.878 L27.122,0.292 C26.836,0.006 26.42,-0.069 26.065,0.063 C25.935,0.111 25.813,0.187 25.708,0.291 L25.708,0.291 L16,9.999 L6.292,0.291 L6.292,0.291 C6.187,0.187 6.065,0.111 5.935,0.063 C5.579,-0.07 5.164,0.006 4.878,0.292 L0.292,4.878 C0.006,5.164 -0.069,5.58 0.063,5.935 C0.112,6.065 0.187,6.187 0.292,6.292 L0.292,6.292 L10,16 L0.292,25.708 L0.292,25.708 C0.188,25.813 0.112,25.935 0.063,26.065 C-0.07,26.42 0.006,26.836 0.292,27.122 L4.878,31.708 C5.164,31.994 5.58,32.069 5.935,31.937 C6.065,31.888 6.187,31.813 6.292,31.708 L6.292,31.708 L16,22 L25.708,31.708 L25.708,31.708 C25.813,31.813 25.935,31.888 26.065,31.937 C26.421,32.07 26.836,31.994 27.122,31.708 L31.708,27.122 C31.994,26.836 32.07,26.42 31.937,26.065 C31.888,25.935 31.813,25.813 31.708,25.708 L31.708,25.708 Z" id="Shape" fill="#0D325D"></path>
    </g>
</svg>