<?xml version="1.0" encoding="UTF-8" standalone="no"?>
<svg width="837px" height="198px" viewBox="0 0 837 198" version="1.1" xmlns="http://www.w3.org/2000/svg" xmlns:xlink="http://www.w3.org/1999/xlink">
    <!-- Generator: Sketch 3.7.2 (28276) - http://www.bohemiancoding.com/sketch -->
    <title>Group</title>
    <desc>Created with Sketch.</desc>
    <defs></defs>
    <g id="Page-1" stroke="none" stroke-width="1" fill="none" fill-rule="evenodd">
        <g id="Group" transform="translate(0.000000, -1.000000)">
            <g id="Layer_1" transform="translate(11.601299, 0.908270)" fill="#394F62">
                <g id="Cyclist" transform="translate(0.000000, 0.000000)">
                    <path d="M84.5998324,40.7774347 L69.6278349,55.3473675 L91.0812005,67.6801846 C91.2150451,77.1066634 91.2915277,85.0799731 91.2346968,92.1928537 C91.1768038,99.2292517 91.8083162,106.131805 90.7752702,109.726487 C89.6662727,113.225565 87.0658647,113.187324 84.886111,113.225565 C82.6867055,113.168203 79.0925551,112.19305 77.7928822,109.573522 C76.4921471,106.896631 77.1040078,102.785692 77.047177,97.5275141 C76.9133325,92.1546124 76.9133325,85.787437 77.047177,77.9091995 C70.2014543,74.7351721 64.5040328,71.9053164 59.665978,69.2093052 C54.7902131,66.5132941 50.6410328,64.5056261 48.1744694,61.9243388 C45.6882542,59.209207 44.9053699,56.3793513 44.8665975,53.6642195 C44.8283562,50.9490876 45.7843885,48.9222991 47.8876597,45.9585989 C49.9718101,42.9566573 53.2414407,39.7635093 57.2573077,35.8628974 C61.2529917,31.8666822 67.7545427,25.3656624 71.5977927,22.5549273 C75.3645601,19.7633129 77.2760936,19.1323315 79.9147429,19.1896935 C82.5725128,19.2279348 85.1155588,20.9105517 87.3144331,22.6887718 C89.3985836,24.3713887 90.2967229,26.0731263 92.5917316,29.553084 C94.8479679,33.0521623 97.5439791,37.5837556 100.756779,43.4346735 C106.913627,42.8801747 111.598186,42.8801747 114.963419,43.4346735 C118.23305,43.9509309 120.240718,44.9260839 120.699082,46.6469421 C121.138857,48.3486797 120.795748,52.2110503 117.67802,53.5112543 C114.466283,54.6967344 105.80463,54.1039943 101.808414,54.0848737 C97.8116682,54.0848737 95.7089282,54.3143215 93.7968635,53.5112543 C91.8454953,52.6317045 91.5023859,51.1402941 90.0290338,49.037023 C88.4622031,46.8960417 86.7222242,44.1426685 84.5998324,40.7774347 L84.5998324,40.7774347 Z" id="Shape"></path>
                    <path d="M100.126329,0.354263093 C107.292322,0.354263093 113.108717,5.75053449 113.108717,12.4002705 C113.108717,19.0500065 107.292322,24.4462779 100.126329,24.4462779 C92.9592729,24.4462779 87.1428784,19.0494754 87.1428784,12.4002705 C87.1428784,5.75106562 92.9587418,0.354263093 100.126329,0.354263093" id="Shape"></path>
                    <path d="M36.6834918,70.2614719 C56.7368012,70.2614719 73.0127205,85.363596 73.0127205,103.971172 C73.0127205,122.578748 56.73627,137.680872 36.6834918,137.680872 C16.6296513,137.680872 0.354263093,122.578748 0.354263093,103.971172 C0.354263093,85.363596 16.6296513,70.2614719 36.6834918,70.2614719 L36.6834918,70.2614719 Z M36.6834918,76.7816125 C52.8632768,76.7816125 65.9954432,88.9630578 65.9954432,103.971172 C65.9954432,118.979286 52.8632768,131.160201 36.6834918,131.160201 C20.5031757,131.160201 7.37154043,118.979286 7.37154043,103.971172 C7.37154043,88.9630578 20.5031757,76.7816125 36.6834918,76.7816125 L36.6834918,76.7816125 Z" id="Shape"></path>
                    <path d="M131.693985,70.2614719 C151.747295,70.2614719 168.023214,85.363596 168.023214,103.971172 C168.023214,122.578748 151.746763,137.680872 131.693985,137.680872 C111.639614,137.680872 95.3647565,122.578748 95.3647565,103.971172 C95.3647565,85.363596 111.639614,70.2614719 131.693985,70.2614719 L131.693985,70.2614719 Z M131.693985,76.7816125 C147.863148,76.7816125 160.986816,88.9630578 160.986816,103.971172 C160.986816,118.979286 147.863148,131.160201 131.693985,131.160201 C115.523761,131.160201 102.401155,118.979286 102.401155,103.971172 C102.401155,88.9630578 115.523761,76.7816125 131.693985,76.7816125 L131.693985,76.7816125 Z" id="Shape"></path>
                </g>
            </g>
            <path d="M9.106,140.236 C11.2640108,140.568002 13.975317,140.789333 17.24,140.9 L21.473,140.319 L25.54,141.481 L26.785,141.481 C31.322356,141.481 34.7529884,141.646998 37.077,141.979 C39.2903444,142.864338 40.5076656,143.362333 40.729,143.473 C43.1636788,145.575677 44.6299975,147.097329 45.128,148.038 C45.9026705,148.923338 46.7326622,150.334324 47.618,152.271 L48.199,155.923 L48.033,159.575 L47.95,159.575 L47.95,159.658 L48.365,163.559 C47.7009967,166.436348 47.2583344,167.875 47.037,167.875 C45.2663245,169.645676 43.5786747,171.471657 41.974,173.353 L38.239,174.598 C40.3416772,177.36468 42.4719892,180.822979 44.63,184.973 C46.62201,187.020344 47.6733328,188.375997 47.784,189.04 L52.764,197.755 C50.6613228,198.419003 48.9460066,198.751 47.618,198.751 L45.543,199 C43.55099,198.833999 39.8160274,198.640334 34.338,198.419 L30.437,197.838 C28.6109909,193.687979 26.8126755,190.340346 25.042,187.795 C23.4373253,185.19432 21.7220091,181.791354 19.896,177.586 L19.813,177.586 L19.315,181.736 L19.481,185.803 L19.232,189.87 L19.647,193.937 L19.481,197.838 C17.6549909,198.170002 15.1650158,198.418999 12.011,198.585 C8.74631701,198.585 5.34335104,198.336002 1.802,197.838 L0.889,197.589 C0.66766556,196.426994 0.50166722,194.490347 0.391,191.779 C0.391,190.39566 0.28033444,188.40368 0.059,185.803 L0.474,169.867 L0.557,169.618 L0.225,165.468 L0.64,161.484 C0.36333195,158.827987 0.225,157.168003 0.225,156.504 L0.225,149.864 C0.225,146.931319 0.5016639,144.081681 1.055,141.315 C2.10633859,141.315 4.78997842,140.955337 9.106,140.236 L9.106,140.236 Z M19.149,156.089 L19.066,156.089 L19.066,156.172 L18.734,160.488 L19.315,165.053 L22.967,165.302 L27.532,163.891 L29.856,160.322 L28.113,156.255 L24.959,156.255 L19.398,156.089 L19.149,156.089 Z M66.791,140.236 C72.601029,140.402001 75.506,140.567999 75.506,140.734 C77.5533436,141.176669 78.577,141.453333 78.577,141.564 L78.743,146.046 L78.328,156.089 L78.328,157.085 L78.577,161.567 C78.3556656,164.444348 78.245,166.768324 78.245,168.539 C78.245,171.803683 78.4386647,177.087963 78.826,184.392 L78.826,185.554 L78.328,189.787 L78.743,193.854 C78.5216656,196.510013 78.3280008,197.838 78.162,197.838 C75.8379884,198.44667 74.5376681,198.751 74.261,198.751 L71.439,198.751 L66.708,199 C63.9966531,199 61.5896772,198.640337 59.487,197.921 L58.906,193.854 L59.321,189.704 C59.1549992,186.771319 58.9336681,184.087679 58.657,181.653 L59.072,177.586 L58.906,173.519 L59.072,169.618 L58.906,165.551 L59.238,157.5 L58.906,153.433 L58.906,152.437 C58.906,148.784982 59.1273311,145.050019 59.57,141.232 C63.2220183,140.567997 65.6289942,140.236 66.791,140.236 L66.791,140.236 Z M99.41,140.236 C102.342681,140.236 105.247652,140.512664 108.125,141.066 L111.362,141.149 L115.761,141.149 L120.077,141.73 L124.061,141.647 C127.104349,142.200336 129.843321,143.030328 132.278,144.137 C136.815356,146.571679 139.084,148.010331 139.084,148.453 C140.799342,150.223676 141.822998,151.579329 142.155,152.52 C142.76367,153.405338 143.482996,155.14832 144.313,157.749 C145.309005,160.128345 145.807,161.677663 145.807,162.397 C145.807,164.333676 145.972998,166.657653 146.305,169.369 C146.028332,172.357015 145.807001,175.261986 145.641,178.084 C144.921663,180.795347 144.396002,182.233999 144.064,182.4 L139.914,188.957 C137.755989,191.170344 136.428002,192.359999 135.93,192.526 C134.103991,193.964674 131.033022,195.486325 126.717,197.091 L122.152,197.921 L119.745,197.921 L118.666,197.921 C115.29065,198.142334 111.528021,198.308333 107.378,198.419 L101.568,199 L99.41,199 C95.9793162,198.723332 93.2956764,198.419002 91.359,198.087 C91.1376656,196.648326 90.9716672,193.798688 90.861,189.538 L90.28,185.969 L90.778,181.487 C90.778,177.945649 90.5566689,174.017022 90.114,169.701 L90.363,161.069 C90.363,159.408992 90.2800008,156.863684 90.114,153.433 L90.446,148.702 L90.363,145.465 C90.6950017,142.974988 90.8886664,141.73 90.944,141.73 L99.41,140.236 Z M109.204,157.749 L109.204,157.832 C108.927332,160.986016 108.789,163.55899 108.789,165.551 L109.37,169.618 L108.789,173.685 C108.789,176.175012 108.954998,178.775653 109.287,181.487 L109.37,181.487 L114.931,181.487 L116.84,181.487 C120.21535,180.767663 121.903,180.242002 121.903,179.91 C123.839676,178.305325 124.808,177.392334 124.808,177.171 C125.914672,174.293652 126.468,172.16334 126.468,170.78 L126.634,169.203 C126.246665,166.214985 125.970001,164.721 125.804,164.721 C124.752661,162.72899 124.088668,161.622334 123.812,161.401 C122.317993,159.740992 121.515667,158.911 121.405,158.911 C118.195651,158.136329 114.128691,157.749 109.204,157.749 L109.204,157.749 Z M171.371,140.236 L175.189,140.568 L179.173,140.236 L186.975,140.9 L190.959,140.402 L194.694,141.315 L195.524,145.05 L194.445,156.421 C194.445,156.697668 194.389667,156.836 194.279,156.836 L190.544,157.002 C187.389984,156.559331 184.595679,156.338 182.161,156.338 C179.781655,156.338 176.987349,156.586998 173.778,157.085 L173.944,161.899 L174.193,161.816 L177.845,161.816 L185.481,161.982 L190.544,161.816 L190.876,161.816 L193.283,161.816 L193.366,161.899 L193.366,161.982 C193.366,164.361345 193.614998,167.570646 194.113,171.61 L194.279,173.104 C193.725664,175.594012 193.366001,176.839 193.2,176.839 L192.619,176.922 L190.959,176.922 C188.579655,176.922 186.781339,176.866667 185.564,176.756 L181.58,177.171 C178.923987,177.171 176.185014,176.977335 173.363,176.59 L173.363,181.902 L173.446,181.902 C176.378681,181.902 178.951656,182.095665 181.165,182.483 L184.9,182.317 L188.635,182.649 L196.022,181.902 C196.188001,183.340674 196.271,184.917658 196.271,186.633 L196.271,189.206 C196.271,189.704002 196.464665,191.308653 196.852,194.02 C196.24333,196.565346 195.883667,197.865666 195.773,197.921 L192.038,198.751 L180.086,198.502 L174.94,198.668 L173.031,198.668 L167.802,199 C161.604636,198.778666 158.506,198.557334 158.506,198.336 C156.458656,197.893331 155.435,197.616667 155.435,197.506 C155.158332,193.964649 155.02,190.838347 155.02,188.127 L155.02,188.044 C155.02,184.889984 155.213665,181.404019 155.601,177.586 L155.186,173.602 L155.269,169.618 L155.02,165.468 C155.462669,159.270636 155.684,155.452674 155.684,154.014 L155.352,149.283 C155.352,146.018317 155.600998,143.279344 156.099,141.066 L159.419,140.485 L162.988,140.568 L163.652,140.568 C166.086679,140.568 168.659653,140.457334 171.371,140.236 L171.371,140.236 Z M257.276,140.236 L261.592,140.734 L264.995,140.651 C267.706347,141.093669 269.062,141.342666 269.062,141.398 L269.311,144.718 L269.228,152.271 C269.117333,155.64635 268.951334,157.334 268.73,157.334 L265.493,156.753 L260.845,157.002 L256.861,157.002 L254.786,157.085 C255.284002,160.515684 255.533,163.254656 255.533,165.302 L255.201,169.369 C255.311667,174.404359 255.449999,178.664983 255.616,182.151 L255.616,183.894 C255.616,185.443341 255.339336,187.352322 254.786,189.621 L255.118,193.688 L254.703,197.838 C252.157654,198.059334 249.723012,198.446664 247.399,199 C244.908988,198.612665 243.332003,198.419 242.668,198.419 L239.929,198.419 C237.383654,198.086998 236.111,197.838001 236.111,197.672 L236.111,197.257 L236.111,196.012 C236.111,194.296658 235.972668,192.194012 235.696,189.704 L236.028,185.637 L235.696,181.57 L236.111,177.503 L235.281,173.436 L235.613,169.369 L235.447,165.302 C235.557667,162.037317 235.723666,159.381344 235.945,157.334 L225.487,156.753 L222.25,157.002 L222.25,156.919 L221.171,153.267 C221.337001,150.112984 221.42,147.429344 221.42,145.216 C221.807335,142.504653 222.083999,141.149 222.25,141.149 L225.902,140.319 L233.538,140.651 L233.621,140.734 L233.704,140.734 L237.688,140.402 L241.672,140.734 L257.276,140.236 Z M284.085,140.236 C291.167702,140.84467 295.123996,141.231999 295.954,141.398 L296.037,141.398 C295.704998,143.611344 295.456001,146.101319 295.29,148.868 L295.539,160.654 L295.622,160.654 C298.665349,160.266665 301.625652,160.073 304.503,160.073 L306.827,160.073 L310.894,160.405 L311.226,156.089 L311.226,149.947 L311.309,145.133 L310.728,141.398 C310.728,141.342666 312.083653,141.01067 314.795,140.402 L318.696,140.651 L322.597,140.236 C326.968355,140.789336 329.402998,141.148999 329.901,141.315 C330.565003,144.635017 330.897,147.816651 330.897,150.86 L330.897,153.101 C330.897,154.097005 330.758668,155.563324 330.482,157.5 L330.565,157.998 C330.565,161.871353 330.813998,165.827646 331.312,169.867 L331.312,171.527 C331.312,174.238347 331.035336,180.380285 330.482,189.953 L330.648,194.02 C330.371332,196.62068 330.150001,197.921 329.984,197.921 C328.157991,198.474336 325.723349,198.833999 322.68,199 C320.189988,198.723332 318.585337,198.585 317.866,198.585 L315.127,198.585 C312.470987,198.197665 311.143,197.948667 311.143,197.838 L311.475,193.605 L311.392,191.945 L311.392,191.281 L311.641,185.056 L310.977,180.74 L311.226,176.341 L311.309,176.341 L311.226,176.341 L307.325,177.005 C305.056322,176.783666 303.562337,176.673 302.843,176.673 L299.523,176.756 L295.788,176.59 L295.788,183.562 C295.788,185.222008 295.732667,187.158656 295.622,189.372 L295.788,194.269 L295.705,197.921 C293.491656,198.253002 290.974014,198.529666 288.152,198.751 L284.251,198.502 L280.35,198.917 C277.859988,198.252997 276.615,197.865667 276.615,197.755 C276.338332,194.656318 276.2,192.028011 276.2,189.87 L276.366,185.886 L276.117,182.151 L276.2,176.839 L276.2,174.183 L275.536,169.701 L275.951,161.567 L275.702,157.583 L276.366,153.433 L276.117,149.449 C276.449002,146.84832 276.670333,144.164681 276.781,141.398 L284.085,140.236 Z M358.536,140.236 L362.354,140.568 L366.338,140.236 L374.14,140.9 L378.124,140.402 L381.859,141.315 L382.689,145.05 L381.61,156.421 C381.61,156.697668 381.554667,156.836 381.444,156.836 L377.709,157.002 C374.554984,156.559331 371.760679,156.338 369.326,156.338 C366.946655,156.338 364.152349,156.586998 360.943,157.085 L361.109,161.899 L361.358,161.816 L365.01,161.816 L372.646,161.982 L377.709,161.816 L378.041,161.816 L380.448,161.816 L380.531,161.899 L380.531,161.982 C380.531,164.361345 380.779998,167.570646 381.278,171.61 L381.444,173.104 C380.890664,175.594012 380.531001,176.839 380.365,176.839 L379.784,176.922 L378.124,176.922 C375.744655,176.922 373.946339,176.866667 372.729,176.756 L368.745,177.171 C366.088987,177.171 363.350014,176.977335 360.528,176.59 L360.528,181.902 L360.611,181.902 C363.543681,181.902 366.116656,182.095665 368.33,182.483 L372.065,182.317 L375.8,182.649 L383.187,181.902 C383.353001,183.340674 383.436,184.917658 383.436,186.633 L383.436,189.206 C383.436,189.704002 383.629665,191.308653 384.017,194.02 C383.40833,196.565346 383.048667,197.865666 382.938,197.921 L379.203,198.751 L367.251,198.502 L362.105,198.668 L360.196,198.668 L354.967,199 C348.769636,198.778666 345.671,198.557334 345.671,198.336 C343.623656,197.893331 342.6,197.616667 342.6,197.506 C342.323332,193.964649 342.185,190.838347 342.185,188.127 L342.185,188.044 C342.185,184.889984 342.378665,181.404019 342.766,177.586 L342.351,173.602 L342.434,169.618 L342.185,165.468 C342.627669,159.270636 342.849,155.452674 342.849,154.014 L342.517,149.283 C342.517,146.018317 342.765998,143.279344 343.264,141.066 L346.584,140.485 L350.153,140.568 L350.817,140.568 C353.251679,140.568 355.824653,140.457334 358.536,140.236 L358.536,140.236 Z M421.284,140.236 C424.604017,140.457334 427.342989,140.844664 429.501,141.398 L430.248,149.781 C431.078004,151.883677 431.493,153.211664 431.493,153.765 C431.493,157.085017 432.18466,160.681647 433.568,164.555 C434.342671,167.100346 434.951331,169.839319 435.394,172.772 L435.394,172.855 L435.726,172.855 C435.947334,169.645651 436.36233,166.934344 436.971,164.721 C437.745671,162.286321 438.133,160.571005 438.133,159.575 C438.133,158.025659 438.741661,155.010022 439.959,150.528 C440.235668,149.753329 440.622998,147.955014 441.121,145.133 L442.615,141.315 C444.385676,141.315 446.930983,140.955337 450.251,140.236 C452.24301,140.678669 455.645976,141.038332 460.46,141.315 C461.622006,141.370334 462.203,141.508666 462.203,141.73 C462.203,142.560004 462.949993,145.243644 464.444,149.781 C464.776002,152.271012 465.439995,154.843987 466.436,157.5 C466.989336,159.547344 467.680996,163.503637 468.511,169.369 L469.424,173.27 C470.198671,170.890655 470.89033,167.70902 471.499,163.725 C471.831002,161.898991 472.411996,159.68568 473.242,157.085 C473.85067,152.049641 474.265666,149.089338 474.487,148.204 C475.09567,146.488658 475.4,145.437335 475.4,145.05 L475.4,144.718 L475.483,141.398 C475.483,141.342666 476.949319,141.093669 479.882,140.651 L482.787,140.651 C483.893672,140.651 485.44299,140.568001 487.435,140.402 L495.071,141.73 L495.154,141.73 L495.154,141.813 C495.154,144.247679 494.711338,146.903652 493.826,149.781 C492.885329,151.607009 492.415,152.879663 492.415,153.599 C492.248999,156.089012 492.027668,157.527665 491.751,157.915 C490.920996,159.851676 490.506,161.262662 490.506,162.148 C490.229332,163.697341 489.648338,165.85532 488.763,168.622 C488.320331,171.056679 487.601005,173.408322 486.605,175.677 L484.53,183.562 C483.367994,185.830678 482.787,187.628993 482.787,188.957 C482.731666,190.008339 482.067673,191.972652 480.795,194.85 C480.075663,196.676009 479.633001,197.589 479.467,197.589 C477.032321,198.142336 475.234006,198.419 474.072,198.419 L471.499,198.419 C468.234317,198.419 464.444022,198.197669 460.128,197.755 C460.128,196.37166 459.298008,192.3877 457.638,185.803 L453.654,172.772 C453.100664,170.724656 452.547336,168.456012 451.994,165.966 L451.911,165.966 C450.804328,170.171354 449.863671,174.348979 449.089,178.499 C447.539659,183.423691 446.737334,186.107331 446.682,186.55 C446.349998,189.095346 445.990335,190.616998 445.603,191.115 C444.772996,192.609007 444.109002,194.739319 443.611,197.506 C443.611,197.727334 442.338346,198.086998 439.793,198.585 C437.247654,198.585 434.730012,198.723332 432.24,199 C428.698649,198.833999 426.928,198.612668 426.928,198.336 C425.267992,197.948665 424.438,197.644334 424.438,197.423 C423.552662,195.762992 422.695004,193.217684 421.865,189.787 C421.25633,187.960991 420.64767,185.581681 420.039,182.649 C418.821661,180.158988 418.213,178.416005 418.213,177.42 C417.327662,173.657315 416.525337,170.752344 415.806,168.705 C415.639999,168.317665 415.308002,166.657681 414.81,163.725 C413.979996,161.788324 413.399002,159.768677 413.067,157.666 C412.292329,153.903315 411.794334,152.022 411.573,152.022 C410.466328,149.863989 409.913,148.287005 409.913,147.291 C409.470331,145.243656 409.249,143.390008 409.249,141.73 L413.067,140.568 L417.134,140.9 L417.134,140.983 L421.284,140.236 Z M518.726,140.236 L522.544,140.568 L526.528,140.236 L534.33,140.9 L538.314,140.402 L542.049,141.315 L542.879,145.05 L541.8,156.421 C541.8,156.697668 541.744667,156.836 541.634,156.836 L537.899,157.002 C534.744984,156.559331 531.950679,156.338 529.516,156.338 C527.136655,156.338 524.342349,156.586998 521.133,157.085 L521.299,161.899 L521.548,161.816 L525.2,161.816 L532.836,161.982 L537.899,161.816 L538.231,161.816 L540.638,161.816 L540.721,161.899 L540.721,161.982 C540.721,164.361345 540.969998,167.570646 541.468,171.61 L541.634,173.104 C541.080664,175.594012 540.721001,176.839 540.555,176.839 L539.974,176.922 L538.314,176.922 C535.934655,176.922 534.136339,176.866667 532.919,176.756 L528.935,177.171 C526.278987,177.171 523.540014,176.977335 520.718,176.59 L520.718,181.902 L520.801,181.902 C523.733681,181.902 526.306656,182.095665 528.52,182.483 L532.255,182.317 L535.99,182.649 L543.377,181.902 C543.543001,183.340674 543.626,184.917658 543.626,186.633 L543.626,189.206 C543.626,189.704002 543.819665,191.308653 544.207,194.02 C543.59833,196.565346 543.238667,197.865666 543.128,197.921 L539.393,198.751 L527.441,198.502 L522.295,198.668 L520.386,198.668 L515.157,199 C508.959636,198.778666 505.861,198.557334 505.861,198.336 C503.813656,197.893331 502.79,197.616667 502.79,197.506 C502.513332,193.964649 502.375,190.838347 502.375,188.127 L502.375,188.044 C502.375,184.889984 502.568665,181.404019 502.956,177.586 L502.541,173.602 L502.624,169.618 L502.375,165.468 C502.817669,159.270636 503.039,155.452674 503.039,154.014 L502.707,149.283 C502.707,146.018317 502.955998,143.279344 503.454,141.066 L506.774,140.485 L510.343,140.568 L511.007,140.568 C513.441679,140.568 516.014653,140.457334 518.726,140.236 L518.726,140.236 Z M585.707,140.236 C588.418347,140.789336 589.774,141.176666 589.774,141.398 L593.26,148.785 C593.924003,151.496347 594.587997,153.405328 595.252,154.512 C595.750002,155.563339 596.496995,157.555319 597.493,160.488 C599.097675,163.254681 600.453328,166.104319 601.56,169.037 L605.461,179.329 C606.06967,181.819012 606.844329,184.032324 607.785,185.969 C608.061668,186.411669 608.531997,188.01632 609.196,190.783 C610.57934,193.273012 611.271,195.126661 611.271,196.344 L611.686,198.253 C609.859991,198.695669 607.25935,198.917 603.884,198.917 L603.718,199 L590.936,198.253 C590.769999,197.976332 590.355003,196.399348 589.691,193.522 L588.114,189.704 L584.462,190.368 L580.81,190.119 L573.506,190.534 L569.937,189.704 C569.162329,192.913349 568.332338,195.762988 567.447,198.253 L567.364,198.336 C563.98865,198.612668 560.032356,198.751 555.495,198.751 L553.254,198.751 L550.764,198.751 L546.697,197.838 L546.697,197.755 C547.969673,194.545651 549.574324,190.146695 551.511,184.558 C553.005007,181.127316 554.139329,177.918015 554.914,174.93 C556.076006,172.661322 557.320993,169.673352 558.649,165.966 C559.25767,164.637993 560.059995,162.452349 561.056,159.409 L564.791,152.105 L567.364,144.552 L569.439,141.149 C572.925017,140.706331 575.580991,140.485 577.407,140.485 L581.474,140.734 L585.707,140.236 Z M579.15,161.235 C578.209329,163.171676 577.43467,165.301988 576.826,167.626 C575.719328,170.22668 575.166,171.720665 575.166,172.108 L574.751,175.179 L574.834,175.179 L578.818,175.262 L583.798,175.013 C582.967996,173.02099 582.387002,171.084343 582.055,169.203 C582.055,168.59433 581.391007,166.740682 580.063,163.642 L579.233,161.235 L579.15,161.235 Z M648.289,140.236 L652.605,140.734 L656.008,140.651 C658.719347,141.093669 660.075,141.342666 660.075,141.398 L660.324,144.718 L660.241,152.271 C660.130333,155.64635 659.964334,157.334 659.743,157.334 L656.506,156.753 L651.858,157.002 L647.874,157.002 L645.799,157.085 C646.297002,160.515684 646.546,163.254656 646.546,165.302 L646.214,169.369 C646.324667,174.404359 646.462999,178.664983 646.629,182.151 L646.629,183.894 C646.629,185.443341 646.352336,187.352322 645.799,189.621 L646.131,193.688 L645.716,197.838 C643.170654,198.059334 640.736012,198.446664 638.412,199 C635.921988,198.612665 634.345003,198.419 633.681,198.419 L630.942,198.419 C628.396654,198.086998 627.124,197.838001 627.124,197.672 L627.124,197.257 L627.124,196.012 C627.124,194.296658 626.985668,192.194012 626.709,189.704 L627.041,185.637 L626.709,181.57 L627.124,177.503 L626.294,173.436 L626.626,169.369 L626.46,165.302 C626.570667,162.037317 626.736666,159.381344 626.958,157.334 L616.5,156.753 L613.263,157.002 L613.263,156.919 L612.184,153.267 C612.350001,150.112984 612.433,147.429344 612.433,145.216 C612.820335,142.504653 613.096999,141.149 613.263,141.149 L616.915,140.319 L624.551,140.651 L624.634,140.734 L624.717,140.734 L628.701,140.402 L632.685,140.734 L648.289,140.236 Z M675.098,140.236 C682.180702,140.84467 686.136996,141.231999 686.967,141.398 L687.05,141.398 C686.717998,143.611344 686.469001,146.101319 686.303,148.868 L686.552,160.654 L686.635,160.654 C689.678349,160.266665 692.638652,160.073 695.516,160.073 L697.84,160.073 L701.907,160.405 L702.239,156.089 L702.239,149.947 L702.322,145.133 L701.741,141.398 C701.741,141.342666 703.096653,141.01067 705.808,140.402 L709.709,140.651 L713.61,140.236 C717.981355,140.789336 720.415998,141.148999 720.914,141.315 C721.578003,144.635017 721.91,147.816651 721.91,150.86 L721.91,153.101 C721.91,154.097005 721.771668,155.563324 721.495,157.5 L721.578,157.998 C721.578,161.871353 721.826998,165.827646 722.325,169.867 L722.325,171.527 C722.325,174.238347 722.048336,180.380285 721.495,189.953 L721.661,194.02 C721.384332,196.62068 721.163001,197.921 720.997,197.921 C719.170991,198.474336 716.736349,198.833999 713.693,199 C711.202988,198.723332 709.598337,198.585 708.879,198.585 L706.14,198.585 C703.483987,198.197665 702.156,197.948667 702.156,197.838 L702.488,193.605 L702.405,191.945 L702.405,191.281 L702.654,185.056 L701.99,180.74 L702.239,176.341 L702.322,176.341 L702.239,176.341 L698.338,177.005 C696.069322,176.783666 694.575337,176.673 693.856,176.673 L690.536,176.756 L686.801,176.59 L686.801,183.562 C686.801,185.222008 686.745667,187.158656 686.635,189.372 L686.801,194.269 L686.718,197.921 C684.504656,198.253002 681.987014,198.529666 679.165,198.751 L675.264,198.502 L671.363,198.917 C668.872988,198.252997 667.628,197.865667 667.628,197.755 C667.351332,194.656318 667.213,192.028011 667.213,189.87 L667.379,185.886 L667.13,182.151 L667.213,176.839 L667.213,174.183 L666.549,169.701 L666.964,161.567 L666.715,157.583 L667.379,153.433 L667.13,149.449 C667.462002,146.84832 667.683333,144.164681 667.794,141.398 L675.098,140.236 Z M749.549,140.236 L753.367,140.568 L757.351,140.236 L765.153,140.9 L769.137,140.402 L772.872,141.315 L773.702,145.05 L772.623,156.421 C772.623,156.697668 772.567667,156.836 772.457,156.836 L768.722,157.002 C765.567984,156.559331 762.773679,156.338 760.339,156.338 C757.959655,156.338 755.165349,156.586998 751.956,157.085 L752.122,161.899 L752.371,161.816 L756.023,161.816 L763.659,161.982 L768.722,161.816 L769.054,161.816 L771.461,161.816 L771.544,161.899 L771.544,161.982 C771.544,164.361345 771.792998,167.570646 772.291,171.61 L772.457,173.104 C771.903664,175.594012 771.544001,176.839 771.378,176.839 L770.797,176.922 L769.137,176.922 C766.757655,176.922 764.959339,176.866667 763.742,176.756 L759.758,177.171 C757.101987,177.171 754.363014,176.977335 751.541,176.59 L751.541,181.902 L751.624,181.902 C754.556681,181.902 757.129656,182.095665 759.343,182.483 L763.078,182.317 L766.813,182.649 L774.2,181.902 C774.366001,183.340674 774.449,184.917658 774.449,186.633 L774.449,189.206 C774.449,189.704002 774.642665,191.308653 775.03,194.02 C774.42133,196.565346 774.061667,197.865666 773.951,197.921 L770.216,198.751 L758.264,198.502 L753.118,198.668 L751.209,198.668 L745.98,199 C739.782636,198.778666 736.684,198.557334 736.684,198.336 C734.636656,197.893331 733.613,197.616667 733.613,197.506 C733.336332,193.964649 733.198,190.838347 733.198,188.127 L733.198,188.044 C733.198,184.889984 733.391665,181.404019 733.779,177.586 L733.364,173.602 L733.447,169.618 L733.198,165.468 C733.640669,159.270636 733.862,155.452674 733.862,154.014 L733.53,149.283 C733.53,146.018317 733.778998,143.279344 734.277,141.066 L737.597,140.485 L741.166,140.568 L741.83,140.568 C744.264679,140.568 746.837653,140.457334 749.549,140.236 L749.549,140.236 Z M792.875,140.236 C795.033011,140.568002 797.744317,140.789333 801.009,140.9 L805.242,140.319 L809.309,141.481 L810.554,141.481 C815.091356,141.481 818.521988,141.646998 820.846,141.979 C823.059344,142.864338 824.276666,143.362333 824.498,143.473 C826.932679,145.575677 828.398998,147.097329 828.897,148.038 C829.671671,148.923338 830.501662,150.334324 831.387,152.271 L831.968,155.923 L831.802,159.575 L831.719,159.575 L831.719,159.658 L832.134,163.559 C831.469997,166.436348 831.027334,167.875 830.806,167.875 C829.035324,169.645676 827.347675,171.471657 825.743,173.353 L822.008,174.598 C824.110677,177.36468 826.240989,180.822979 828.399,184.973 C830.39101,187.020344 831.442333,188.375997 831.553,189.04 L836.533,197.755 C834.430323,198.419003 832.715007,198.751 831.387,198.751 L829.312,199 C827.31999,198.833999 823.585027,198.640334 818.107,198.419 L814.206,197.838 C812.379991,193.687979 810.581676,190.340346 808.811,187.795 C807.206325,185.19432 805.491009,181.791354 803.665,177.586 L803.582,177.586 L803.084,181.736 L803.25,185.803 L803.001,189.87 L803.416,193.937 L803.25,197.838 C801.423991,198.170002 798.934016,198.418999 795.78,198.585 C792.515317,198.585 789.112351,198.336002 785.571,197.838 L784.658,197.589 C784.436666,196.426994 784.270667,194.490347 784.16,191.779 C784.16,190.39566 784.049334,188.40368 783.828,185.803 L784.243,169.867 L784.326,169.618 L783.994,165.468 L784.409,161.484 C784.132332,158.827987 783.994,157.168003 783.994,156.504 L783.994,149.864 C783.994,146.931319 784.270664,144.081681 784.824,141.315 C785.875339,141.315 788.558978,140.955337 792.875,140.236 L792.875,140.236 Z M802.918,156.089 L802.835,156.089 L802.835,156.172 L802.503,160.488 L803.084,165.053 L806.736,165.302 L811.301,163.891 L813.625,160.322 L811.882,156.255 L808.728,156.255 L803.167,156.089 L802.918,156.089 Z" id="RIDE-THE-WEATHER" fill="#2B3D50"></path>
        </g>
    </g>
</svg>