<?xml version="1.0" encoding="UTF-8" standalone="no"?>
<svg width="69px" height="47px" viewBox="0 0 69 47" version="1.1" xmlns="http://www.w3.org/2000/svg" xmlns:xlink="http://www.w3.org/1999/xlink">
    <!-- Generator: Sketch 3.7.2 (28276) - http://www.bohemiancoding.com/sketch -->
    <title>cloud</title>
    <desc>Created with Sketch.</desc>
    <defs></defs>
    <g id="Page-1" stroke="none" stroke-width="1" fill="none" fill-rule="evenodd">
        <g id="cloud" fill="#9B9B9B">
            <path d="M51.8,47 L15.6,47 C15.1,47 14.7,46.9 14.3,46.8 C6.3,45.6 0.5,39.2 0.5,31 C0.5,22.9 5.9,16.7 13.7,15.3 C14.1,13.7 14.7,11.7 15.7,9.7 C18.9,3.5 24.7,0.1 32.2,0.1 C39.6,0.1 45.5,3.5 48.7,9.7 C49.7,11.6 50.3,13.5 50.7,15 L51.8,15 C61.5,15 68.5,21.7 68.5,31 C68.5,40.1 61.3,47 51.8,47 L51.8,47 Z M17.2,39 L51.8,39 C57.8,39 60.5,34.9 60.5,31 C60.5,26.2 57,23 51.8,23 L47.3,23 C45.2,23 43.4,21.3 43.3,19.2 C43.3,19.2 43.1,16.1 41.5,13.2 C39.6,9.7 36.5,8.1 32.1,8.1 C21.8,8 21.2,18 21.2,19.1 C21.1,21.3 19.4,23 17.2,23 C12,23 8.5,26.2 8.5,31 C8.5,34.8 11.2,39 17.2,39 L17.2,39 Z" id="Shape"></path>
        </g>
    </g>
</svg>