<?xml version="1.0" encoding="UTF-8" standalone="no"?>
<svg width="91px" height="71px" viewBox="0 0 91 71" version="1.1" xmlns="http://www.w3.org/2000/svg" xmlns:xlink="http://www.w3.org/1999/xlink">
    <!-- Generator: Sketch 3.7.2 (28276) - http://www.bohemiancoding.com/sketch -->
    <title>cloud-moon</title>
    <desc>Created with Sketch.</desc>
    <defs></defs>
    <g id="Page-1" stroke="none" stroke-width="1" fill="none" fill-rule="evenodd">
        <g id="cloud-moon">
            <g id="Group">
                <path d="M51.5,38.3 L50.4,38.3 C50,36.7 49.4,34.9 48.4,33 C45.1,26.8 39.2,23.4 31.9,23.4 C24.5,23.4 18.6,26.8 15.4,33 C14.4,35 13.8,37 13.4,38.6 C5.6,40 0.2,46.2 0.2,54.3 C0.2,62.4 6,68.8 14,70.1 C14.4,70.2 14.9,70.3 15.3,70.3 L51.5,70.3 C61,70.3 68.2,63.4 68.2,54.3 C68.2,45 61.2,38.3 51.5,38.3 L51.5,38.3 Z M51.5,62.3 L16.9,62.3 C10.9,62.3 8.2,58.2 8.2,54.3 C8.2,49.5 11.7,46.3 16.9,46.3 C19.1,46.3 20.8,44.6 20.9,42.4 C20.9,41.3 21.5,31.3 31.8,31.3 C36.2,31.3 39.3,33 41.2,36.4 C42.8,39.3 43,42.4 43,42.4 C43.1,44.5 44.9,46.2 47,46.2 L51.5,46.2 C56.7,46.2 60.2,49.4 60.2,54.2 C60.2,58.1 57.5,62.3 51.5,62.3 L51.5,62.3 Z" id="Shape" fill="#705E79"></path>
                <path d="M90.3,33.7 C89.7,32.8 88.6,32.3 87.6,32.4 C81,32.9 74.6,29.6 71.3,23.8 C68,18.1 68.3,10.9 72,5.4 C72.6,4.5 72.7,3.3 72.2,2.4 C71.7,1.4 70.7,0.8 69.6,0.7 C65,0.5 60.4,1.6 56.3,4 C50.7,7.2 46.6,12.5 44.9,18.7 C44.5,20.3 45.4,22 47,22.4 C48.6,22.8 50.2,21.9 50.7,20.3 C52,15.6 55.1,11.6 59.3,9.2 C60.9,8.3 62.6,7.6 64.3,7.2 C62,13.6 62.6,20.8 66,26.8 C69.5,32.8 75.5,36.9 82.1,38.1 C80.9,39.4 79.4,40.5 77.9,41.5 C76.5,42.3 74.9,43 73.4,43.4 C71.8,43.8 70.8,45.5 71.3,47.1 C71.7,48.4 72.9,49.3 74.2,49.3 C74.5,49.3 74.7,49.3 75,49.2 C77.1,48.6 79.1,47.8 81,46.7 C85,44.4 88.3,41 90.5,36.8 C90.9,35.8 90.9,34.6 90.3,33.7 L90.3,33.7 Z" id="Shape" fill="#FAC413"></path>
            </g>
        </g>
    </g>
</svg>