<?xml version="1.0" encoding="UTF-8" standalone="no"?>
<svg width="69px" height="63px" viewBox="0 0 69 63" version="1.1" xmlns="http://www.w3.org/2000/svg" xmlns:xlink="http://www.w3.org/1999/xlink">
    <!-- Generator: Sketch 3.7.2 (28276) - http://www.bohemiancoding.com/sketch -->
    <title>cloud-rain-2</title>
    <desc>Created with Sketch.</desc>
    <defs></defs>
    <g id="Page-1" stroke="none" stroke-width="1" fill="none" fill-rule="evenodd">
        <g id="cloud-rain-2">
            <g id="Group">
                <path d="M51.8,15 L50.7,15 C50.3,13.4 49.7,11.6 48.7,9.7 C45.4,3.5 39.5,0.1 32.2,0.1 C24.8,0.1 18.9,3.5 15.7,9.7 C14.7,11.7 14.1,13.7 13.7,15.3 C5.9,16.7 0.5,22.9 0.5,31 C0.5,36.8 3.4,41.9 8.4,44.8 C10.3,45.9 12.8,45.2 13.9,43.3 C15,41.4 14.3,38.9 12.4,37.8 C10,36.4 8.6,33.9 8.6,31 C8.6,26.2 12.1,23 17.3,23 C19.5,23 21.2,21.3 21.3,19.1 C21.2,18 21.8,8 32.1,8 C36.5,8 39.6,9.7 41.5,13.1 C43.1,16 43.3,19.1 43.3,19.1 C43.4,21.2 45.2,22.9 47.3,22.9 L51.8,22.9 C57,22.9 60.5,26.1 60.5,30.9 C60.5,34.8 57.8,38.9 51.8,38.9 L49.6,38.9 C47.4,38.9 45.6,40.7 45.6,42.9 C45.6,45.1 47.4,46.9 49.6,46.9 L51.8,46.9 C61.3,46.9 68.5,40 68.5,30.9 C68.5,21.7 61.5,15 51.8,15 L51.8,15 Z" id="Shape" fill="#9B9B9B"></path>
                <path d="M31.4,48.2 C30.5,49.4 27.4,53.7 27.4,56.7 C27.4,60.6 30.4,63 33.4,63 C36.4,63 39.4,60.6 39.4,56.7 C39.4,53.6 36.4,49.4 35.4,48.2 C34.9,47.5 34.2,47.2 33.4,47.2 C32.6,47.2 31.9,47.6 31.4,48.2 Z" id="Shape" fill="#165196"></path>
                <path d="M25.4,35.7 C24.6,34.7 23,34.7 22.2,35.7 C21.5,36.6 19.2,39.9 19.2,42.2 C19.2,45.2 21.5,47 23.8,47 C26.1,47 28.4,45.2 28.4,42.2 C28.4,39.8 26.1,36.6 25.4,35.7 L25.4,35.7 Z" id="Shape" fill="#165196"></path>
                <path d="M39.5,29.8 C39,29.8 38.6,30 38.3,30.4 C37.7,31.2 35.7,34 35.7,36 C35.7,38.5 37.6,40 39.5,40 L39.5,40 C41.4,40 43.3,38.5 43.3,36 C43.3,34.7 41.2,29.8 39.5,29.8 L39.5,29.8 Z" id="Shape" fill="#165196"></path>
            </g>
        </g>
    </g>
</svg>