<?xml version="1.0" encoding="UTF-8" standalone="no"?>
<svg width="91px" height="53px" viewBox="0 0 91 53" version="1.1" xmlns="http://www.w3.org/2000/svg" xmlns:xlink="http://www.w3.org/1999/xlink">
    <!-- Generator: Sketch 3.7.2 (28276) - http://www.bohemiancoding.com/sketch -->
    <title>clouds</title>
    <desc>Created with Sketch.</desc>
    <defs></defs>
    <g id="Page-1" stroke="none" stroke-width="1" fill="none" fill-rule="evenodd">
        <g id="clouds">
            <g id="Group">
                <path d="M51.5,21 L50.4,21 C50,19.4 49.4,17.6 48.4,15.7 C45.1,9.5 39.2,6.1 31.9,6.1 C24.5,6.1 18.6,9.5 15.4,15.7 C14.4,17.7 13.8,19.7 13.4,21.3 C5.6,22.8 0.2,28.9 0.2,37 C0.2,45.2 6,51.6 14,52.8 C14.4,52.9 14.9,53 15.3,53 L51.5,53 C61,53 68.2,46.1 68.2,37 C68.2,27.8 61.2,21 51.5,21 L51.5,21 Z M51.5,45 L16.9,45 C10.9,45 8.2,40.9 8.2,37 C8.2,32.2 11.7,29 16.9,29 C19.1,29 20.8,27.3 20.9,25.1 C20.9,24 21.5,14 31.8,14 C36.2,14 39.3,15.7 41.2,19.1 C42.8,22 43,25.1 43,25.1 C43.1,27.2 44.9,28.9 47,28.9 L51.5,28.9 C56.7,28.9 60.2,32.1 60.2,36.9 C60.2,40.9 57.5,45 51.5,45 L51.5,45 Z" id="Shape" fill="#9B9B9B"></path>
                <path d="M78.9,10.4 L78.3,10.4 C78,9.3 77.6,8.1 76.9,6.8 C74.6,2.4 70.4,0 65.2,0 C60,0 55.8,2.4 53.6,6.8 C52,9.9 51.9,12.9 51.9,13.3 C51.9,14.9 53.1,16.3 54.8,16.4 C56.4,16.5 57.8,15.2 57.9,13.5 C58,12.2 58.6,6 65.3,6 C72.1,6 72.8,12.3 72.8,13.5 C72.9,15.1 74.2,16.4 75.8,16.4 L78.9,16.4 C82.4,16.4 84.7,18.5 84.7,21.7 C84.7,24.3 82.9,27 78.9,27 L75.3,27 C73.6,27 72.3,28.3 72.3,30 C72.3,31.7 73.6,33 75.3,33 L78.9,33 C85.6,33 90.7,28.1 90.7,21.7 C90.8,15.1 85.8,10.4 78.9,10.4 L78.9,10.4 Z" id="Shape" fill="#A4C4C9"></path>
            </g>
        </g>
    </g>
</svg>