<?xml version="1.0" encoding="UTF-8" standalone="no"?>
<svg width="91px" height="71px" viewBox="0 0 91 71" version="1.1" xmlns="http://www.w3.org/2000/svg" xmlns:xlink="http://www.w3.org/1999/xlink">
    <!-- Generator: Sketch 3.7.2 (28276) - http://www.bohemiancoding.com/sketch -->
    <title>cloud-sun</title>
    <desc>Created with Sketch.</desc>
    <defs></defs>
    <g id="Page-1" stroke="none" stroke-width="1" fill="none" fill-rule="evenodd">
        <g id="cloud-sun">
            <g id="Group">
                <path d="M51.5,38.3 L50.4,38.3 C50,36.7 49.4,34.9 48.4,33 C45.1,26.8 39.2,23.4 31.9,23.4 C24.5,23.4 18.6,26.8 15.4,33 C14.4,35 13.8,37 13.4,38.6 C5.6,40 0.2,46.2 0.2,54.3 C0.2,62.4 6,68.8 14,70.1 C14.4,70.2 14.9,70.3 15.3,70.3 L51.5,70.3 C61,70.3 68.2,63.4 68.2,54.3 C68.2,45 61.2,38.3 51.5,38.3 L51.5,38.3 Z M51.5,62.3 L16.9,62.3 C10.9,62.3 8.2,58.2 8.2,54.3 C8.2,49.5 11.7,46.3 16.9,46.3 C19,46.3 20.8,44.6 20.9,42.4 C20.9,42.4 21,39.3 22.6,36.4 C24.4,33 27.5,31.3 31.8,31.3 C36.2,31.3 39.3,33 41.2,36.4 C42.8,39.3 43,42.4 43,42.4 C43.1,44.5 44.9,46.2 47,46.2 L51.5,46.2 C56.7,46.2 60.2,49.4 60.2,54.2 C60.2,58.1 57.5,62.3 51.5,62.3 L51.5,62.3 Z" id="Shape" fill="#9B9B9B"></path>
                <path d="M74.3,32.8 C74.3,24.2 67.3,17.2 58.7,17.2 C55.6,17.2 52.5,18.1 50,19.9 C48.6,20.8 48.3,22.7 49.2,24.1 C50.1,25.5 52,25.8 53.4,24.9 C55,23.8 56.9,23.3 58.8,23.3 C64.1,23.3 68.4,27.6 68.4,32.9 C68.4,34.5 68,36 67.3,37.3 C66.5,38.8 67.1,40.6 68.6,41.3 C69,41.5 69.5,41.6 70,41.6 C71.1,41.6 72.1,41 72.7,40 C73.7,37.8 74.3,35.3 74.3,32.8 L74.3,32.8 Z" id="Shape" fill="#FAC413"></path>
                <path d="M58.7,12.4 C60.4,12.4 61.7,11.1 61.7,9.4 L61.7,3.7 C61.7,2 60.4,0.7 58.7,0.7 C57,0.7 55.7,2 55.7,3.7 L55.7,9.4 C55.7,11.1 57.1,12.4 58.7,12.4 L58.7,12.4 Z" id="Shape" fill="#FAC413"></path>
                <path d="M87.8,29.8 L82,29.8 C80.3,29.8 79,31.1 79,32.8 C79,34.5 80.3,35.8 82,35.8 L87.7,35.8 C89.4,35.8 90.7,34.5 90.7,32.8 C90.8,31.1 89.4,29.8 87.8,29.8 L87.8,29.8 Z" id="Shape" fill="#FAC413"></path>
                <path d="M75.2,19.3 C76,19.3 76.7,19 77.3,18.4 L81.3,14.4 C82.5,13.2 82.5,11.3 81.3,10.2 C80.1,9 78.2,9 77.1,10.2 L73.1,14.2 C71.9,15.4 71.9,17.3 73.1,18.4 C73.7,19 74.4,19.3 75.2,19.3 L75.2,19.3 Z" id="Shape" fill="#FAC413"></path>
                <path d="M77.3,47.2 C76.1,46 74.2,46 73.1,47.2 C71.9,48.4 71.9,50.3 73.1,51.4 L77.1,55.4 C77.7,56 78.5,56.3 79.2,56.3 C80,56.3 80.7,56 81.3,55.4 C82.5,54.2 82.5,52.3 81.3,51.2 L77.3,47.2 L77.3,47.2 Z" id="Shape" fill="#FAC413"></path>
                <path d="M40.1,18.4 C40.7,19 41.5,19.3 42.2,19.3 C43,19.3 43.7,19 44.3,18.4 C45.5,17.2 45.5,15.3 44.3,14.2 L40.3,10.2 C39.1,9 37.2,9 36.1,10.2 C34.9,11.4 34.9,13.3 36.1,14.4 L40.1,18.4 L40.1,18.4 Z" id="Shape" fill="#FAC413"></path>
            </g>
        </g>
    </g>
</svg>