<?xml version="1.0" encoding="UTF-8" standalone="no"?>
<svg width="91px" height="45px" viewBox="0 0 91 45" version="1.1" xmlns="http://www.w3.org/2000/svg" xmlns:xlink="http://www.w3.org/1999/xlink">
    <!-- Generator: Sketch 3.7.2 (28276) - http://www.bohemiancoding.com/sketch -->
    <title>fog</title>
    <desc>Created with Sketch.</desc>
    <defs></defs>
    <g id="Page-1" stroke="none" stroke-width="1" fill="none" fill-rule="evenodd">
        <g id="fog">
            <g id="Group">
                <path d="M18.7,9.1 L66.5,9.1 C68.7,9.1 70.5,7.3 70.5,5.1 C70.5,2.9 68.7,1.1 66.5,1.1 L18.7,1.1 C16.5,1.1 14.7,2.9 14.7,5.1 C14.7,7.3 16.5,9.1 18.7,9.1 L18.7,9.1 Z" id="Shape" fill="#A4C4C9"></path>
                <path d="M68,22.8 C68,20.6 66.2,18.8 64,18.8 L4.1,18.8 C1.9,18.8 0.1,20.6 0.1,22.8 C0.1,25 1.9,26.8 4.1,26.8 L64,26.8 C66.2,26.8 68,25 68,22.8 L68,22.8 Z" id="Shape" fill="#C5C5C5"></path>
                <path d="M86.9,36.4 L27,36.4 C24.8,36.4 23,38.2 23,40.4 C23,42.6 24.8,44.4 27,44.4 L86.9,44.4 C89.1,44.4 90.9,42.6 90.9,40.4 C90.9,38.2 89.1,36.4 86.9,36.4 L86.9,36.4 Z" id="Shape" fill="#A4C4C9"></path>
                <path d="M78.4,9.6 L78.6,9.6 C81.1,9.6 83.1,7.6 83.1,5.1 C83.1,2.6 81.1,0.6 78.6,0.6 L78.4,0.6 C75.9,0.6 73.9,2.6 73.9,5.1 C73.9,7.6 75.9,9.6 78.4,9.6 L78.4,9.6 Z" id="Shape" fill="#C5C5C5"></path>
            </g>
        </g>
    </g>
</svg>