<?xml version="1.0" encoding="UTF-8" standalone="no"?>
<svg width="73px" height="63px" viewBox="0 0 73 63" version="1.1" xmlns="http://www.w3.org/2000/svg" xmlns:xlink="http://www.w3.org/1999/xlink">
    <!-- Generator: Sketch 3.7.2 (28276) - http://www.bohemiancoding.com/sketch -->
    <title>moon-stars</title>
    <desc>Created with Sketch.</desc>
    <defs></defs>
    <g id="Page-1" stroke="none" stroke-width="1" fill="none" fill-rule="evenodd">
        <g id="moon-stars">
            <g id="Group">
                <path d="M52.1,42.8 C50,43.5 47.8,43.8 45.6,43.8 C38.1,43.8 31.2,39.8 27.5,33.4 C22.6,24.9 24.4,14 31.7,7.4 C33,6.3 33.4,4.4 32.7,2.9 C32,1.3 30.4,0.3 28.7,0.5 C24,0.8 19.5,2.2 15.4,4.6 C0.7,13.2 -4.4,32.2 4.2,47 C9.7,56.5 20,62.5 31,62.5 C36.4,62.5 41.8,61.1 46.5,58.3 C50.6,55.9 54,52.8 56.7,48.8 C57.7,47.4 57.6,45.5 56.6,44.1 C55.5,42.8 53.7,42.3 52.1,42.8 L52.1,42.8 Z M31,54.5 C22.8,54.5 15.2,50.1 11.1,43 C4.8,32.2 8.4,18.3 19.1,11.8 C15.6,20 16,29.5 20.6,37.5 C25.1,45.3 33.1,50.6 42.1,51.7 C38.7,53.5 34.9,54.5 31,54.5 L31,54.5 Z" id="Shape" fill="#FAC413"></path>
                <polygon id="Star-1" fill="#387E99" points="43.8402456 26 41.6029626 27.236068 42.0302456 24.618034 40.2202457 22.763932 42.7216041 22.381966 43.8402456 20 44.958887 22.381966 47.4602454 22.763932 45.6502455 24.618034 46.0775285 27.236068"></polygon>
                <polygon id="Star-1" fill="#387E99" points="57.665 9.99749994 53.7474113 12.0570982 54.4956041 7.69479909 51.3262083 4.60540171 55.7062056 3.96895084 57.665 0 59.6237943 3.96895084 64.0037916 4.60540171 60.8343958 7.69479909 61.5825886 12.0570982"></polygon>
                <polygon id="Star-1" fill="#387E99" points="69.9863023 31.6666667 68.2465365 32.6280529 68.5788022 30.5918042 67.1713022 29.1497249 69.1164194 28.8526402 69.9863023 27 70.8561851 28.8526402 72.8013023 29.1497249 71.3938023 30.5918042 71.726068 32.6280529"></polygon>
            </g>
        </g>
    </g>
</svg>