<?xml version="1.0" encoding="UTF-8" standalone="no"?>
<svg width="91px" height="91px" viewBox="0 0 91 91" version="1.1" xmlns="http://www.w3.org/2000/svg" xmlns:xlink="http://www.w3.org/1999/xlink">
    <!-- Generator: Sketch 3.7.2 (28276) - http://www.bohemiancoding.com/sketch -->
    <title>sun</title>
    <desc>Created with Sketch.</desc>
    <defs></defs>
    <g id="Page-1" stroke="none" stroke-width="1" fill="none" fill-rule="evenodd">
        <g id="sun" fill="#FAC413">
            <g id="Group">
                <path d="M45.5,23.5 C33.4,23.5 23.5,33.4 23.5,45.5 C23.5,57.6 33.4,67.5 45.5,67.5 C57.6,67.5 67.5,57.6 67.5,45.5 C67.5,33.4 57.6,23.5 45.5,23.5 L45.5,23.5 Z M45.5,59.5 C37.8,59.5 31.5,53.2 31.5,45.5 C31.5,37.8 37.8,31.5 45.5,31.5 C53.2,31.5 59.5,37.8 59.5,45.5 C59.5,53.2 53.2,59.5 45.5,59.5 L45.5,59.5 Z" id="Shape"></path>
                <path d="M45.5,16.2 C47.7,16.2 49.5,14.4 49.5,12.2 L49.5,4.1 C49.5,1.9 47.7,0.1 45.5,0.1 C43.3,0.1 41.5,1.9 41.5,4.1 L41.5,12.2 C41.5,14.5 43.3,16.2 45.5,16.2 L45.5,16.2 Z" id="Shape"></path>
                <path d="M86.9,41.5 L78.8,41.5 C76.6,41.5 74.8,43.3 74.8,45.5 C74.8,47.7 76.6,49.5 78.8,49.5 L86.9,49.5 C89.1,49.5 90.9,47.7 90.9,45.5 C90.9,43.3 89.1,41.5 86.9,41.5 L86.9,41.5 Z" id="Shape"></path>
                <path d="M45.5,74.8 C43.3,74.8 41.5,76.6 41.5,78.8 L41.5,86.9 C41.5,89.1 43.3,90.9 45.5,90.9 C47.7,90.9 49.5,89.1 49.5,86.9 L49.5,78.8 C49.5,76.5 47.7,74.8 45.5,74.8 L45.5,74.8 Z" id="Shape"></path>
                <path d="M16.2,45.5 C16.2,43.3 14.4,41.5 12.2,41.5 L4.1,41.5 C1.9,41.5 0.1,43.3 0.1,45.5 C0.1,47.7 1.9,49.5 4.1,49.5 L12.2,49.5 C14.5,49.5 16.2,47.7 16.2,45.5 L16.2,45.5 Z" id="Shape"></path>
                <path d="M69,26 C70,26 71,25.6 71.8,24.8 L77.6,19 C79.2,17.4 79.2,14.9 77.6,13.3 C76,11.7 73.5,11.7 71.9,13.3 L66.1,19.1 C64.5,20.7 64.5,23.2 66.1,24.8 C67,25.6 68,26 69,26 L69,26 Z" id="Shape"></path>
                <path d="M71.8,66.2 C70.2,64.6 67.7,64.6 66.1,66.2 C64.5,67.8 64.5,70.3 66.1,71.9 L71.9,77.7 C72.7,78.5 73.7,78.9 74.7,78.9 C75.7,78.9 76.7,78.5 77.5,77.7 C79.1,76.1 79.1,73.6 77.5,72 L71.8,66.2 L71.8,66.2 Z" id="Shape"></path>
                <path d="M19.2,66.2 L13.4,72 C11.8,73.6 11.8,76.1 13.4,77.7 C14.2,78.5 15.2,78.9 16.2,78.9 C17.2,78.9 18.2,78.5 19,77.7 L24.8,71.9 C26.4,70.3 26.4,67.8 24.8,66.2 C23.3,64.6 20.7,64.6 19.2,66.2 L19.2,66.2 Z" id="Shape"></path>
                <path d="M19.2,24.8 C19.9,25.6 21,26 22,26 C23,26 24,25.6 24.8,24.8 C26.4,23.2 26.4,20.7 24.8,19.1 L19,13.3 C17.4,11.7 14.9,11.7 13.3,13.3 C11.7,14.9 11.7,17.4 13.3,19 L19.2,24.8 L19.2,24.8 Z" id="Shape"></path>
            </g>
        </g>
    </g>
</svg>