<?xml version="1.0" encoding="UTF-8" standalone="no"?>
<svg width="81px" height="55px" viewBox="0 0 81 55" version="1.1" xmlns="http://www.w3.org/2000/svg" xmlns:xlink="http://www.w3.org/1999/xlink">
    <!-- Generator: Sketch 3.7.2 (28276) - http://www.bohemiancoding.com/sketch -->
    <title>wind</title>
    <desc>Created with Sketch.</desc>
    <defs></defs>
    <g id="Page-1" stroke="none" stroke-width="1" fill="none" fill-rule="evenodd">
        <g id="wind">
            <g id="Group">
                <path d="M68.2,0.2 C64.8,0.2 61.5,1.6 59.2,4.1 C57.7,5.7 57.8,8.2 59.4,9.8 C61,11.3 63.5,11.2 65.1,9.6 C65.9,8.7 67,8.2 68.2,8.2 C70.6,8.2 72.5,10.1 72.5,12.5 C72.5,14.9 70.6,16.8 68.2,16.8 L4.5,16.8 C2.3,16.8 0.5,18.6 0.5,20.8 C0.5,23 2.3,24.8 4.5,24.8 L68.2,24.8 C75,24.8 80.5,19.3 80.5,12.5 C80.5,5.7 75,0.2 68.2,0.2 L68.2,0.2 Z" id="Shape" fill="#9B9B9B"></path>
                <path d="M50,30.2 L4.5,30.2 C2.3,30.2 0.5,32 0.5,34.2 C0.5,36.4 2.3,38.2 4.5,38.2 L50,38.2 C52.4,38.2 54.3,40.1 54.3,42.5 C54.3,44.9 52.4,46.8 50,46.8 C48.8,46.8 47.7,46.3 46.9,45.4 C45.4,43.8 42.9,43.7 41.2,45.2 C39.6,46.7 39.5,49.2 41,50.9 C43.3,53.4 46.6,54.8 50,54.8 C56.8,54.8 62.3,49.3 62.3,42.5 C62.2,35.7 56.7,30.2 50,30.2 L50,30.2 Z" id="Shape" fill="#A4C4C9"></path>
            </g>
        </g>
    </g>
</svg>